<?xml version="1.0" encoding="UTF-8"?>
<svg xmlns="http://www.w3.org/2000/svg" width="829" height="829" viewBox="0 0 829 829">
  <path d="M 338 94 L 337 95 L 336 95 L 335 96 L 334 96 L 330 100 L 330 101 L 329 102 L 329 103 L 328 104 L 328 106 L 327 107 L 327 127 L 328 128 L 328 138 L 329 139 L 329 147 L 330 148 L 330 153 L 331 154 L 331 157 L 330 158 L 327 155 L 326 155 L 325 154 L 324 154 L 322 152 L 321 152 L 320 151 L 319 151 L 318 150 L 317 150 L 316 149 L 315 149 L 314 148 L 313 148 L 311 146 L 310 146 L 309 145 L 308 145 L 307 144 L 306 144 L 305 143 L 304 143 L 303 142 L 302 142 L 301 141 L 300 141 L 299 140 L 298 140 L 297 139 L 296 139 L 295 138 L 293 138 L 292 137 L 291 137 L 290 136 L 288 136 L 287 135 L 284 135 L 283 134 L 278 134 L 277 135 L 274 135 L 273 136 L 272 136 L 267 141 L 267 142 L 266 143 L 266 145 L 265 146 L 265 164 L 266 165 L 266 170 L 267 171 L 267 175 L 268 176 L 268 180 L 269 181 L 269 184 L 270 185 L 270 188 L 271 189 L 271 191 L 272 192 L 272 194 L 273 195 L 273 197 L 274 198 L 274 199 L 275 200 L 275 202 L 276 203 L 276 206 L 277 207 L 277 212 L 276 213 L 276 214 L 273 217 L 273 218 L 269 222 L 268 222 L 255 235 L 254 235 L 243 246 L 242 246 L 238 250 L 238 251 L 234 255 L 234 256 L 232 258 L 232 259 L 231 260 L 231 261 L 230 262 L 230 264 L 229 265 L 229 267 L 228 268 L 228 270 L 227 271 L 227 275 L 226 276 L 226 279 L 225 280 L 225 283 L 224 284 L 224 287 L 223 288 L 223 290 L 222 291 L 222 294 L 221 295 L 221 297 L 220 298 L 220 300 L 219 301 L 219 302 L 218 303 L 218 304 L 217 305 L 217 306 L 216 307 L 216 308 L 215 309 L 215 310 L 213 312 L 213 313 L 212 314 L 212 315 L 210 317 L 210 318 L 208 320 L 208 321 L 206 323 L 206 324 L 205 325 L 205 326 L 203 328 L 203 329 L 201 331 L 201 332 L 199 334 L 199 335 L 197 337 L 197 338 L 195 340 L 195 341 L 193 343 L 193 344 L 191 346 L 191 347 L 189 349 L 189 350 L 187 352 L 187 353 L 185 355 L 185 356 L 183 358 L 183 359 L 181 361 L 181 362 L 179 364 L 179 365 L 176 368 L 176 369 L 174 371 L 174 372 L 172 374 L 172 375 L 170 377 L 170 378 L 168 380 L 168 381 L 166 383 L 166 384 L 164 386 L 164 387 L 162 389 L 162 390 L 160 392 L 160 393 L 158 395 L 158 396 L 156 398 L 156 399 L 154 401 L 154 402 L 152 404 L 152 405 L 150 407 L 150 408 L 148 410 L 148 411 L 146 413 L 146 414 L 143 417 L 143 418 L 142 419 L 142 420 L 140 422 L 140 423 L 138 425 L 138 426 L 136 428 L 136 429 L 134 431 L 134 432 L 133 433 L 133 434 L 132 435 L 132 436 L 131 437 L 131 438 L 130 439 L 130 440 L 129 441 L 129 443 L 128 444 L 128 446 L 127 447 L 127 469 L 128 470 L 128 478 L 129 479 L 129 484 L 130 485 L 130 491 L 131 492 L 131 496 L 132 497 L 132 502 L 133 503 L 133 506 L 134 507 L 134 509 L 135 510 L 135 511 L 136 512 L 136 513 L 137 514 L 137 515 L 139 517 L 139 518 L 147 526 L 148 526 L 150 528 L 151 528 L 152 529 L 153 529 L 154 530 L 156 530 L 157 531 L 159 531 L 160 532 L 163 532 L 164 533 L 167 533 L 168 534 L 171 534 L 172 535 L 174 535 L 175 536 L 177 536 L 178 537 L 180 537 L 181 538 L 183 538 L 184 539 L 185 539 L 186 540 L 188 540 L 189 541 L 190 541 L 191 542 L 194 542 L 195 543 L 197 543 L 198 544 L 203 544 L 204 545 L 211 545 L 212 544 L 218 544 L 219 543 L 222 543 L 223 542 L 225 542 L 226 541 L 227 541 L 228 540 L 230 540 L 232 538 L 233 538 L 234 537 L 235 537 L 239 533 L 240 533 L 244 529 L 244 528 L 247 525 L 247 524 L 249 522 L 249 521 L 250 520 L 250 519 L 251 518 L 251 517 L 252 516 L 252 515 L 253 514 L 253 512 L 254 511 L 254 510 L 255 509 L 255 508 L 256 507 L 256 505 L 257 504 L 257 502 L 258 501 L 258 500 L 259 499 L 259 497 L 260 496 L 260 495 L 262 493 L 262 492 L 270 484 L 271 484 L 273 482 L 274 482 L 276 480 L 277 480 L 279 478 L 280 478 L 281 477 L 282 477 L 284 475 L 285 475 L 287 473 L 288 473 L 289 472 L 290 472 L 292 470 L 293 470 L 295 468 L 296 468 L 298 466 L 299 466 L 301 464 L 302 464 L 303 463 L 304 463 L 306 461 L 307 461 L 308 460 L 309 460 L 311 458 L 312 458 L 314 456 L 315 456 L 316 455 L 318 455 L 319 454 L 340 454 L 341 455 L 351 455 L 352 454 L 360 454 L 361 453 L 364 453 L 365 452 L 368 452 L 369 451 L 371 451 L 372 450 L 373 450 L 374 449 L 376 449 L 377 448 L 378 448 L 379 447 L 380 447 L 381 446 L 382 446 L 383 445 L 384 445 L 386 443 L 387 443 L 388 442 L 389 442 L 392 439 L 393 440 L 393 444 L 394 445 L 394 454 L 393 455 L 393 461 L 392 462 L 392 466 L 391 467 L 391 471 L 390 472 L 390 475 L 389 476 L 389 478 L 388 479 L 388 480 L 387 481 L 387 483 L 386 484 L 386 485 L 385 486 L 385 487 L 384 488 L 384 489 L 383 490 L 383 491 L 382 492 L 382 493 L 381 494 L 381 495 L 380 496 L 380 497 L 378 499 L 378 500 L 377 501 L 377 502 L 375 504 L 375 505 L 373 507 L 373 508 L 370 511 L 370 512 L 367 515 L 367 516 L 363 520 L 363 521 L 358 526 L 358 527 L 354 531 L 354 532 L 349 537 L 349 538 L 344 543 L 344 544 L 340 548 L 340 549 L 336 553 L 336 554 L 333 557 L 333 558 L 329 562 L 329 563 L 327 565 L 327 566 L 325 568 L 325 569 L 323 571 L 323 572 L 321 574 L 321 575 L 319 577 L 319 578 L 317 580 L 317 581 L 316 582 L 316 583 L 314 585 L 314 586 L 313 587 L 313 588 L 311 590 L 311 591 L 310 592 L 310 593 L 309 594 L 309 595 L 308 596 L 308 597 L 307 598 L 307 599 L 306 600 L 306 601 L 304 603 L 304 604 L 303 605 L 303 606 L 302 607 L 302 608 L 301 609 L 301 610 L 300 611 L 300 612 L 299 613 L 299 615 L 298 616 L 298 617 L 297 618 L 297 619 L 296 620 L 296 621 L 295 622 L 295 624 L 294 625 L 294 626 L 293 627 L 293 629 L 292 630 L 292 632 L 291 633 L 291 635 L 290 636 L 290 637 L 289 638 L 289 640 L 288 641 L 288 643 L 287 644 L 287 646 L 286 647 L 286 650 L 285 651 L 285 653 L 284 654 L 284 657 L 283 658 L 283 661 L 282 662 L 282 665 L 281 666 L 281 670 L 280 671 L 280 675 L 279 676 L 279 681 L 278 682 L 278 691 L 277 692 L 277 716 L 278 717 L 278 720 L 279 721 L 279 722 L 280 723 L 280 724 L 283 727 L 284 727 L 285 728 L 286 728 L 287 729 L 288 729 L 289 730 L 291 730 L 292 731 L 299 731 L 300 732 L 311 732 L 312 733 L 334 733 L 335 734 L 379 734 L 380 733 L 407 733 L 408 732 L 421 732 L 422 731 L 430 731 L 431 730 L 439 730 L 440 729 L 447 729 L 448 728 L 454 728 L 455 727 L 460 727 L 461 726 L 466 726 L 467 725 L 471 725 L 472 724 L 476 724 L 477 723 L 481 723 L 482 722 L 485 722 L 486 721 L 490 721 L 491 720 L 495 720 L 496 719 L 499 719 L 500 718 L 503 718 L 504 717 L 507 717 L 508 716 L 510 716 L 511 715 L 513 715 L 514 714 L 517 714 L 518 713 L 520 713 L 521 712 L 524 712 L 525 711 L 527 711 L 528 710 L 530 710 L 531 709 L 533 709 L 534 708 L 536 708 L 537 707 L 539 707 L 540 706 L 542 706 L 543 705 L 545 705 L 546 704 L 548 704 L 549 703 L 550 703 L 551 702 L 553 702 L 554 701 L 556 701 L 557 700 L 558 700 L 559 699 L 560 699 L 561 698 L 563 698 L 564 697 L 565 697 L 566 696 L 568 696 L 569 695 L 570 695 L 571 694 L 572 694 L 573 693 L 574 693 L 575 692 L 576 692 L 577 691 L 578 691 L 579 690 L 581 690 L 582 689 L 583 689 L 584 688 L 585 688 L 586 687 L 587 687 L 588 686 L 589 686 L 590 685 L 591 685 L 592 684 L 593 684 L 594 683 L 595 683 L 596 682 L 597 682 L 599 680 L 600 680 L 601 679 L 602 679 L 603 678 L 604 678 L 605 677 L 606 677 L 608 675 L 609 675 L 610 674 L 611 674 L 613 672 L 614 672 L 615 671 L 616 671 L 617 670 L 618 670 L 620 668 L 621 668 L 623 666 L 624 666 L 626 664 L 627 664 L 628 663 L 629 663 L 631 661 L 632 661 L 635 658 L 636 658 L 638 656 L 639 656 L 642 653 L 643 653 L 646 650 L 647 650 L 651 646 L 652 646 L 657 641 L 658 641 L 666 633 L 667 633 L 677 623 L 677 622 L 682 617 L 682 616 L 687 611 L 687 610 L 689 608 L 689 607 L 691 605 L 691 604 L 692 603 L 692 602 L 693 601 L 693 600 L 694 599 L 694 598 L 695 597 L 695 595 L 696 594 L 696 592 L 697 591 L 697 588 L 698 587 L 698 584 L 699 583 L 699 577 L 700 576 L 700 525 L 699 524 L 699 507 L 698 506 L 698 495 L 697 494 L 697 483 L 696 482 L 696 475 L 695 474 L 695 468 L 694 467 L 694 461 L 693 460 L 693 455 L 692 454 L 692 449 L 691 448 L 691 444 L 690 443 L 690 439 L 689 438 L 689 434 L 688 433 L 688 429 L 687 428 L 687 425 L 686 424 L 686 420 L 685 419 L 685 416 L 684 415 L 684 413 L 683 412 L 683 409 L 682 408 L 682 405 L 681 404 L 681 402 L 680 401 L 680 398 L 679 397 L 679 394 L 678 393 L 678 391 L 677 390 L 677 388 L 676 387 L 676 385 L 675 384 L 675 382 L 674 381 L 674 380 L 673 379 L 673 377 L 672 376 L 672 373 L 671 372 L 671 370 L 670 369 L 670 368 L 669 367 L 669 366 L 668 365 L 668 363 L 667 362 L 667 360 L 666 359 L 666 358 L 665 357 L 665 355 L 664 354 L 664 353 L 663 352 L 663 350 L 662 349 L 662 348 L 661 347 L 661 346 L 660 345 L 660 344 L 659 343 L 659 341 L 658 340 L 658 339 L 657 338 L 657 337 L 656 336 L 656 335 L 655 334 L 655 333 L 654 332 L 654 331 L 653 330 L 653 328 L 652 327 L 652 326 L 651 325 L 651 324 L 650 323 L 650 322 L 649 321 L 649 320 L 647 318 L 647 317 L 646 316 L 646 315 L 645 314 L 645 313 L 644 312 L 644 311 L 643 310 L 643 309 L 642 308 L 642 307 L 640 305 L 640 304 L 639 303 L 639 302 L 638 301 L 638 300 L 636 298 L 636 297 L 634 295 L 634 294 L 633 293 L 633 292 L 631 290 L 631 289 L 630 288 L 630 287 L 628 285 L 628 284 L 625 281 L 625 280 L 623 278 L 623 277 L 621 275 L 621 274 L 619 272 L 619 271 L 615 267 L 615 266 L 612 263 L 612 262 L 608 258 L 608 257 L 603 252 L 603 251 L 595 243 L 595 242 L 581 228 L 580 228 L 573 221 L 572 221 L 566 215 L 565 215 L 562 212 L 561 212 L 558 209 L 557 209 L 554 206 L 553 206 L 551 204 L 550 204 L 548 202 L 547 202 L 545 200 L 544 200 L 542 198 L 541 198 L 540 197 L 539 197 L 537 195 L 536 195 L 535 194 L 534 194 L 532 192 L 531 192 L 530 191 L 529 191 L 528 190 L 527 190 L 526 189 L 525 189 L 524 188 L 523 188 L 522 187 L 521 187 L 519 185 L 518 185 L 517 184 L 516 184 L 515 183 L 514 183 L 513 182 L 512 182 L 511 181 L 509 181 L 508 180 L 507 180 L 506 179 L 505 179 L 504 178 L 502 178 L 501 177 L 500 177 L 499 176 L 498 176 L 497 175 L 495 175 L 494 174 L 493 174 L 492 173 L 490 173 L 489 172 L 487 172 L 486 171 L 484 171 L 483 170 L 480 170 L 479 169 L 477 169 L 476 168 L 474 168 L 473 167 L 471 167 L 470 166 L 467 166 L 466 165 L 462 165 L 461 164 L 457 164 L 456 163 L 452 163 L 451 162 L 446 162 L 445 161 L 439 161 L 438 160 L 430 160 L 429 159 L 420 159 L 419 158 L 418 158 L 416 156 L 416 155 L 415 154 L 415 153 L 413 151 L 413 150 L 412 149 L 412 148 L 410 146 L 410 145 L 407 142 L 407 141 L 404 138 L 404 137 L 386 119 L 385 119 L 381 115 L 380 115 L 377 112 L 376 112 L 373 109 L 372 109 L 371 108 L 370 108 L 368 106 L 367 106 L 366 105 L 365 105 L 363 103 L 362 103 L 361 102 L 360 102 L 358 100 L 357 100 L 356 99 L 355 99 L 354 98 L 353 98 L 352 97 L 351 97 L 350 96 L 349 96 L 348 95 L 346 95 L 345 94 Z M 342 110 L 343 109 L 344 109 L 345 110 L 346 110 L 347 111 L 348 111 L 349 112 L 350 112 L 351 113 L 352 113 L 353 114 L 354 114 L 356 116 L 357 116 L 358 117 L 359 117 L 361 119 L 362 119 L 364 121 L 365 121 L 367 123 L 368 123 L 370 125 L 371 125 L 375 129 L 376 129 L 384 137 L 385 137 L 388 140 L 388 141 L 394 147 L 394 148 L 398 152 L 398 153 L 400 155 L 400 156 L 401 157 L 401 158 L 403 160 L 403 161 L 404 162 L 404 163 L 405 164 L 405 165 L 406 166 L 406 167 L 411 172 L 413 172 L 414 173 L 423 173 L 424 174 L 433 174 L 434 175 L 442 175 L 443 176 L 447 176 L 448 177 L 453 177 L 454 178 L 457 178 L 458 179 L 462 179 L 463 180 L 466 180 L 467 181 L 469 181 L 470 182 L 473 182 L 474 183 L 476 183 L 477 184 L 479 184 L 480 185 L 482 185 L 483 186 L 485 186 L 486 187 L 488 187 L 489 188 L 491 188 L 492 189 L 493 189 L 494 190 L 496 190 L 497 191 L 498 191 L 499 192 L 501 192 L 502 193 L 503 193 L 504 194 L 505 194 L 506 195 L 507 195 L 508 196 L 509 196 L 510 197 L 511 197 L 512 198 L 513 198 L 514 199 L 515 199 L 516 200 L 517 200 L 518 201 L 519 201 L 520 202 L 521 202 L 522 203 L 523 203 L 525 205 L 526 205 L 527 206 L 528 206 L 529 207 L 530 207 L 532 209 L 533 209 L 534 210 L 535 210 L 537 212 L 538 212 L 540 214 L 541 214 L 543 216 L 544 216 L 547 219 L 548 219 L 551 222 L 552 222 L 555 225 L 556 225 L 559 228 L 560 228 L 567 235 L 568 235 L 590 257 L 590 258 L 596 264 L 596 265 L 600 269 L 600 270 L 604 274 L 604 275 L 606 277 L 606 278 L 609 281 L 609 282 L 612 285 L 612 286 L 614 288 L 614 289 L 616 291 L 616 292 L 618 294 L 618 295 L 620 297 L 620 298 L 621 299 L 621 300 L 623 302 L 623 303 L 624 304 L 624 305 L 626 307 L 626 308 L 627 309 L 627 310 L 629 312 L 629 313 L 630 314 L 630 315 L 631 316 L 631 317 L 632 318 L 632 319 L 633 320 L 633 321 L 634 322 L 634 323 L 635 324 L 635 325 L 637 327 L 637 328 L 638 329 L 638 330 L 639 331 L 639 332 L 640 333 L 640 334 L 641 335 L 641 337 L 642 338 L 642 339 L 643 340 L 643 341 L 644 342 L 644 343 L 645 344 L 645 345 L 646 346 L 646 347 L 647 348 L 647 350 L 648 351 L 648 352 L 649 353 L 649 355 L 650 356 L 650 357 L 651 358 L 651 359 L 652 360 L 652 362 L 653 363 L 653 364 L 654 365 L 654 367 L 655 368 L 655 369 L 656 370 L 656 372 L 657 373 L 657 375 L 658 376 L 658 378 L 659 379 L 659 380 L 660 381 L 660 383 L 661 384 L 661 386 L 662 387 L 662 389 L 663 390 L 663 392 L 664 393 L 664 395 L 665 396 L 665 399 L 666 400 L 666 402 L 667 403 L 667 406 L 668 407 L 668 409 L 669 410 L 669 413 L 670 414 L 670 417 L 671 418 L 671 421 L 672 422 L 672 425 L 673 426 L 673 429 L 674 430 L 674 434 L 675 435 L 675 439 L 676 440 L 676 444 L 677 445 L 677 449 L 678 450 L 678 455 L 679 456 L 679 462 L 680 463 L 680 469 L 681 470 L 681 477 L 682 478 L 682 486 L 683 487 L 683 496 L 684 497 L 684 507 L 685 508 L 685 523 L 686 524 L 686 549 L 687 550 L 687 563 L 686 564 L 686 576 L 685 577 L 685 583 L 684 584 L 684 587 L 683 588 L 683 590 L 682 591 L 682 592 L 681 593 L 681 594 L 680 595 L 680 596 L 679 597 L 679 598 L 678 599 L 678 600 L 676 602 L 676 603 L 672 607 L 672 608 L 663 617 L 663 618 L 659 622 L 658 622 L 650 630 L 649 630 L 644 635 L 643 635 L 639 639 L 638 639 L 635 642 L 634 642 L 632 644 L 631 644 L 628 647 L 627 647 L 625 649 L 624 649 L 621 652 L 620 652 L 619 653 L 618 653 L 616 655 L 615 655 L 613 657 L 612 657 L 611 658 L 610 658 L 608 660 L 607 660 L 606 661 L 605 661 L 603 663 L 602 663 L 601 664 L 600 664 L 599 665 L 598 665 L 596 667 L 595 667 L 594 668 L 593 668 L 592 669 L 591 669 L 590 670 L 589 670 L 588 671 L 587 671 L 586 672 L 585 672 L 584 673 L 583 673 L 582 674 L 581 674 L 580 675 L 579 675 L 578 676 L 577 676 L 576 677 L 575 677 L 574 678 L 573 678 L 572 679 L 571 679 L 570 680 L 569 680 L 568 681 L 566 681 L 565 682 L 564 682 L 563 683 L 562 683 L 561 684 L 559 684 L 558 685 L 557 685 L 556 686 L 555 686 L 554 687 L 552 687 L 551 688 L 549 688 L 548 689 L 546 689 L 545 690 L 544 690 L 543 691 L 541 691 L 540 692 L 538 692 L 537 693 L 535 693 L 534 694 L 532 694 L 531 695 L 530 695 L 529 696 L 527 696 L 526 697 L 523 697 L 522 698 L 520 698 L 519 699 L 517 699 L 516 700 L 513 700 L 512 701 L 510 701 L 509 702 L 506 702 L 505 703 L 503 703 L 502 704 L 498 704 L 497 705 L 494 705 L 493 706 L 490 706 L 489 707 L 486 707 L 485 708 L 481 708 L 480 709 L 476 709 L 475 710 L 471 710 L 470 711 L 466 711 L 465 712 L 460 712 L 459 713 L 454 713 L 453 714 L 447 714 L 446 715 L 441 715 L 440 716 L 432 716 L 431 717 L 422 717 L 421 718 L 409 718 L 408 719 L 389 719 L 388 720 L 332 720 L 331 719 L 312 719 L 311 718 L 300 718 L 299 717 L 294 717 L 293 716 L 292 716 L 291 715 L 291 692 L 292 691 L 292 685 L 293 684 L 293 678 L 294 677 L 294 672 L 295 671 L 295 667 L 296 666 L 296 663 L 297 662 L 297 659 L 298 658 L 298 656 L 299 655 L 299 652 L 300 651 L 300 649 L 301 648 L 301 646 L 302 645 L 302 643 L 303 642 L 303 640 L 304 639 L 304 637 L 305 636 L 305 635 L 306 634 L 306 632 L 307 631 L 307 630 L 308 629 L 308 627 L 309 626 L 309 625 L 310 624 L 310 622 L 311 621 L 311 620 L 312 619 L 312 618 L 313 617 L 313 616 L 314 615 L 314 614 L 315 613 L 315 612 L 316 611 L 316 610 L 317 609 L 317 608 L 318 607 L 318 606 L 319 605 L 319 604 L 320 603 L 320 602 L 322 600 L 322 599 L 323 598 L 323 597 L 324 596 L 324 595 L 326 593 L 326 592 L 327 591 L 327 590 L 329 588 L 329 587 L 330 586 L 330 585 L 333 582 L 333 581 L 334 580 L 334 579 L 337 576 L 337 575 L 340 572 L 340 571 L 342 569 L 342 568 L 345 565 L 345 564 L 348 561 L 348 560 L 352 556 L 352 555 L 357 550 L 357 549 L 360 546 L 360 545 L 365 540 L 365 539 L 370 534 L 370 533 L 374 529 L 374 528 L 378 524 L 378 523 L 381 520 L 381 519 L 384 516 L 384 515 L 386 513 L 386 512 L 388 510 L 388 509 L 390 507 L 390 506 L 391 505 L 391 504 L 392 503 L 392 502 L 394 500 L 394 499 L 395 498 L 395 497 L 396 496 L 396 495 L 397 494 L 397 493 L 398 492 L 398 490 L 399 489 L 399 488 L 400 487 L 400 485 L 401 484 L 401 482 L 402 481 L 402 479 L 403 478 L 403 476 L 404 475 L 404 472 L 405 471 L 405 467 L 406 466 L 406 461 L 407 460 L 407 438 L 406 437 L 406 433 L 405 432 L 405 430 L 404 429 L 404 428 L 400 424 L 398 424 L 397 423 L 394 423 L 393 424 L 392 424 L 391 425 L 390 425 L 389 426 L 388 426 L 386 428 L 385 428 L 384 429 L 383 429 L 381 431 L 380 431 L 379 432 L 378 432 L 376 434 L 375 434 L 374 435 L 373 435 L 372 436 L 370 436 L 369 437 L 368 437 L 367 438 L 365 438 L 364 439 L 361 439 L 360 440 L 356 440 L 355 441 L 335 441 L 334 440 L 321 440 L 320 441 L 316 441 L 315 442 L 313 442 L 312 443 L 310 443 L 309 444 L 308 444 L 307 445 L 306 445 L 305 446 L 304 446 L 302 448 L 301 448 L 299 450 L 298 450 L 297 451 L 296 451 L 294 453 L 293 453 L 291 455 L 290 455 L 288 457 L 287 457 L 285 459 L 284 459 L 282 461 L 281 461 L 280 462 L 279 462 L 277 464 L 276 464 L 274 466 L 273 466 L 272 467 L 271 467 L 269 469 L 268 469 L 266 471 L 265 471 L 263 473 L 262 473 L 259 476 L 258 476 L 253 481 L 253 482 L 251 484 L 251 485 L 249 487 L 249 488 L 248 489 L 248 490 L 247 491 L 247 492 L 246 493 L 246 494 L 245 495 L 245 496 L 244 497 L 244 499 L 243 500 L 243 502 L 242 503 L 242 505 L 241 506 L 241 507 L 240 508 L 240 509 L 239 510 L 239 511 L 238 512 L 238 513 L 237 514 L 237 515 L 235 517 L 235 518 L 228 525 L 227 525 L 226 526 L 225 526 L 224 527 L 223 527 L 222 528 L 220 528 L 219 529 L 217 529 L 216 530 L 212 530 L 211 531 L 205 531 L 204 530 L 200 530 L 199 529 L 197 529 L 196 528 L 195 528 L 194 527 L 192 527 L 191 526 L 189 526 L 188 525 L 186 525 L 185 524 L 184 524 L 183 523 L 181 523 L 180 522 L 177 522 L 176 521 L 173 521 L 172 520 L 169 520 L 168 519 L 165 519 L 164 518 L 161 518 L 160 517 L 159 517 L 158 516 L 157 516 L 154 513 L 153 513 L 151 511 L 151 510 L 149 508 L 149 507 L 148 506 L 148 505 L 147 504 L 147 501 L 146 500 L 146 496 L 145 495 L 145 491 L 144 490 L 144 484 L 143 483 L 143 477 L 142 476 L 142 468 L 141 467 L 141 449 L 142 448 L 142 446 L 143 445 L 143 444 L 144 443 L 144 442 L 145 441 L 145 440 L 146 439 L 146 438 L 147 437 L 147 436 L 149 434 L 149 433 L 151 431 L 151 430 L 153 428 L 153 427 L 155 425 L 155 424 L 157 422 L 157 421 L 159 419 L 159 418 L 161 416 L 161 415 L 163 413 L 163 412 L 165 410 L 165 409 L 167 407 L 167 406 L 169 404 L 169 403 L 171 401 L 171 400 L 173 398 L 173 397 L 175 395 L 175 394 L 177 392 L 177 391 L 179 389 L 179 388 L 181 386 L 181 385 L 183 383 L 183 382 L 185 380 L 185 379 L 187 377 L 187 376 L 189 374 L 189 373 L 191 371 L 191 370 L 193 368 L 193 367 L 196 364 L 196 363 L 197 362 L 197 361 L 199 359 L 199 358 L 202 355 L 202 354 L 204 352 L 204 351 L 206 349 L 206 348 L 208 346 L 208 345 L 210 343 L 210 342 L 212 340 L 212 339 L 213 338 L 213 337 L 215 335 L 215 334 L 217 332 L 217 331 L 219 329 L 219 328 L 221 326 L 221 325 L 223 323 L 223 322 L 224 321 L 224 320 L 226 318 L 226 317 L 228 315 L 228 314 L 229 313 L 229 312 L 230 311 L 230 310 L 231 309 L 231 307 L 232 306 L 232 305 L 233 304 L 233 302 L 234 301 L 234 300 L 235 299 L 235 296 L 236 295 L 236 293 L 237 292 L 237 289 L 238 288 L 238 285 L 239 284 L 239 281 L 240 280 L 240 276 L 241 275 L 241 272 L 242 271 L 242 269 L 243 268 L 243 267 L 245 265 L 245 264 L 248 261 L 248 260 L 258 250 L 259 250 L 269 240 L 270 240 L 286 224 L 286 223 L 289 220 L 289 219 L 290 218 L 290 215 L 291 214 L 291 204 L 290 203 L 290 201 L 289 200 L 289 197 L 288 196 L 288 195 L 287 194 L 287 192 L 286 191 L 286 189 L 285 188 L 285 186 L 284 185 L 284 182 L 283 181 L 283 178 L 282 177 L 282 174 L 281 173 L 281 169 L 280 168 L 280 162 L 279 161 L 279 150 L 280 149 L 283 149 L 284 150 L 285 150 L 286 151 L 288 151 L 289 152 L 290 152 L 291 153 L 292 153 L 293 154 L 295 154 L 296 155 L 297 155 L 298 156 L 299 156 L 300 157 L 301 157 L 302 158 L 303 158 L 305 160 L 306 160 L 307 161 L 308 161 L 309 162 L 310 162 L 311 163 L 312 163 L 314 165 L 315 165 L 316 166 L 317 166 L 318 167 L 319 167 L 321 169 L 322 169 L 323 170 L 324 170 L 326 172 L 327 172 L 328 173 L 329 173 L 330 174 L 331 174 L 332 175 L 337 175 L 338 174 L 339 174 L 340 173 L 341 173 L 343 171 L 343 170 L 344 169 L 344 168 L 345 167 L 345 153 L 344 152 L 344 144 L 343 143 L 343 135 L 342 134 L 342 125 L 341 124 L 341 112 L 342 111 Z" fill="#FFFFFF" fill-rule="evenodd"/>
</svg>
