<?xml version="1.0" encoding="UTF-8"?>
<svg xmlns="http://www.w3.org/2000/svg" width="828" height="828" viewBox="0 0 828 828">
  <path d="M 344 94 L 343 95 L 342 95 L 341 96 L 340 96 L 337 99 L 337 100 L 336 101 L 336 102 L 335 103 L 335 106 L 334 107 L 334 127 L 335 128 L 335 137 L 336 138 L 336 146 L 337 147 L 337 152 L 338 153 L 338 155 L 337 156 L 336 155 L 335 155 L 334 154 L 333 154 L 331 152 L 330 152 L 329 151 L 328 151 L 326 149 L 325 149 L 324 148 L 323 148 L 322 147 L 321 147 L 320 146 L 319 146 L 318 145 L 317 145 L 315 143 L 314 143 L 313 142 L 312 142 L 311 141 L 310 141 L 309 140 L 307 140 L 306 139 L 305 139 L 304 138 L 303 138 L 302 137 L 300 137 L 299 136 L 298 136 L 297 135 L 294 135 L 293 134 L 290 134 L 289 133 L 279 133 L 278 134 L 276 134 L 275 135 L 274 135 L 270 139 L 270 140 L 269 141 L 269 143 L 268 144 L 268 152 L 267 153 L 267 155 L 268 156 L 268 167 L 269 168 L 269 173 L 270 174 L 270 178 L 271 179 L 271 182 L 272 183 L 272 186 L 273 187 L 273 189 L 274 190 L 274 193 L 275 194 L 275 196 L 276 197 L 276 198 L 277 199 L 277 201 L 278 202 L 278 204 L 279 205 L 279 207 L 280 208 L 280 210 L 281 211 L 281 217 L 277 221 L 277 222 L 266 233 L 265 233 L 250 248 L 249 248 L 245 252 L 245 253 L 241 257 L 241 258 L 239 260 L 239 261 L 238 262 L 238 263 L 237 264 L 237 265 L 236 266 L 236 267 L 235 268 L 235 269 L 234 270 L 234 272 L 233 273 L 233 276 L 232 277 L 232 281 L 231 282 L 231 286 L 230 287 L 230 290 L 229 291 L 229 294 L 228 295 L 228 297 L 227 298 L 227 300 L 226 301 L 226 303 L 225 304 L 225 305 L 224 306 L 224 307 L 223 308 L 223 309 L 222 310 L 222 311 L 221 312 L 221 313 L 219 315 L 219 316 L 218 317 L 218 318 L 216 320 L 216 321 L 215 322 L 215 323 L 213 325 L 213 326 L 211 328 L 211 329 L 209 331 L 209 332 L 207 334 L 207 335 L 205 337 L 205 338 L 203 340 L 203 341 L 201 343 L 201 344 L 198 347 L 198 348 L 196 350 L 196 351 L 194 353 L 194 354 L 192 356 L 192 357 L 190 359 L 190 360 L 188 362 L 188 363 L 186 365 L 186 366 L 183 369 L 183 370 L 181 372 L 181 373 L 179 375 L 179 376 L 177 378 L 177 379 L 174 382 L 174 383 L 172 385 L 172 386 L 170 388 L 170 389 L 168 391 L 168 392 L 166 394 L 166 395 L 164 397 L 164 398 L 161 401 L 161 402 L 159 404 L 159 405 L 156 408 L 156 409 L 154 411 L 154 412 L 152 414 L 152 415 L 150 417 L 150 418 L 148 420 L 148 421 L 145 424 L 145 425 L 143 427 L 143 428 L 141 430 L 141 431 L 139 433 L 139 434 L 137 436 L 137 437 L 135 439 L 135 440 L 134 441 L 134 442 L 133 443 L 133 445 L 132 446 L 132 447 L 131 448 L 131 451 L 130 452 L 130 458 L 129 459 L 129 468 L 130 469 L 130 480 L 131 481 L 131 488 L 132 489 L 132 496 L 133 497 L 133 502 L 134 503 L 134 506 L 135 507 L 135 510 L 136 511 L 136 513 L 137 514 L 137 516 L 138 517 L 138 519 L 139 520 L 139 521 L 140 522 L 140 523 L 143 526 L 143 527 L 148 532 L 149 532 L 151 534 L 152 534 L 154 536 L 155 536 L 156 537 L 158 537 L 159 538 L 160 538 L 161 539 L 163 539 L 164 540 L 166 540 L 167 541 L 170 541 L 171 542 L 174 542 L 175 543 L 178 543 L 179 544 L 181 544 L 182 545 L 184 545 L 185 546 L 187 546 L 188 547 L 189 547 L 190 548 L 192 548 L 193 549 L 195 549 L 196 550 L 199 550 L 200 551 L 203 551 L 204 552 L 222 552 L 223 551 L 226 551 L 227 550 L 229 550 L 230 549 L 232 549 L 233 548 L 234 548 L 235 547 L 236 547 L 237 546 L 238 546 L 239 545 L 240 545 L 242 543 L 243 543 L 255 531 L 255 530 L 257 528 L 257 527 L 258 526 L 258 525 L 259 524 L 259 523 L 260 522 L 260 521 L 261 520 L 261 518 L 262 517 L 262 516 L 263 515 L 263 513 L 264 512 L 264 510 L 265 509 L 265 507 L 266 506 L 266 504 L 267 503 L 267 501 L 268 500 L 268 499 L 269 498 L 269 496 L 271 494 L 271 493 L 279 485 L 280 485 L 282 483 L 283 483 L 285 481 L 286 481 L 288 479 L 289 479 L 291 477 L 292 477 L 294 475 L 295 475 L 296 474 L 297 474 L 299 472 L 300 472 L 302 470 L 303 470 L 305 468 L 306 468 L 309 465 L 310 465 L 312 463 L 313 463 L 315 461 L 316 461 L 317 460 L 318 460 L 320 458 L 321 458 L 322 457 L 324 457 L 325 456 L 327 456 L 328 455 L 358 455 L 359 454 L 364 454 L 365 453 L 369 453 L 370 452 L 372 452 L 373 451 L 375 451 L 376 450 L 377 450 L 378 449 L 380 449 L 381 448 L 382 448 L 383 447 L 384 447 L 385 446 L 386 446 L 388 444 L 389 444 L 390 443 L 391 443 L 393 441 L 394 441 L 396 439 L 397 439 L 398 440 L 398 462 L 397 463 L 397 467 L 396 468 L 396 471 L 395 472 L 395 474 L 394 475 L 394 477 L 393 478 L 393 479 L 392 480 L 392 482 L 391 483 L 391 484 L 390 485 L 390 486 L 389 487 L 389 488 L 388 489 L 388 490 L 386 492 L 386 493 L 385 494 L 385 495 L 383 497 L 383 498 L 381 500 L 381 501 L 379 503 L 379 504 L 376 507 L 376 508 L 373 511 L 373 512 L 368 517 L 368 518 L 364 522 L 364 523 L 358 529 L 358 530 L 352 536 L 352 537 L 348 541 L 348 542 L 344 546 L 344 547 L 340 551 L 340 552 L 336 556 L 336 557 L 333 560 L 333 561 L 331 563 L 331 564 L 328 567 L 328 568 L 326 570 L 326 571 L 323 574 L 323 575 L 321 577 L 321 578 L 319 580 L 319 581 L 318 582 L 318 583 L 316 585 L 316 586 L 315 587 L 315 588 L 313 590 L 313 591 L 312 592 L 312 593 L 310 595 L 310 596 L 309 597 L 309 598 L 308 599 L 308 600 L 307 601 L 307 602 L 305 604 L 305 605 L 304 606 L 304 607 L 303 608 L 303 609 L 302 610 L 302 611 L 301 612 L 301 613 L 300 614 L 300 615 L 299 616 L 299 618 L 298 619 L 298 620 L 297 621 L 297 622 L 296 623 L 296 625 L 295 626 L 295 627 L 294 628 L 294 629 L 293 630 L 293 632 L 292 633 L 292 634 L 291 635 L 291 637 L 290 638 L 290 640 L 289 641 L 289 643 L 288 644 L 288 646 L 287 647 L 287 649 L 286 650 L 286 652 L 285 653 L 285 656 L 284 657 L 284 660 L 283 661 L 283 665 L 282 666 L 282 669 L 281 670 L 281 676 L 280 677 L 280 684 L 279 685 L 279 712 L 280 713 L 280 716 L 281 717 L 281 718 L 282 719 L 282 720 L 283 721 L 283 722 L 284 723 L 285 723 L 287 725 L 288 725 L 289 726 L 290 726 L 291 727 L 293 727 L 294 728 L 298 728 L 299 729 L 305 729 L 306 730 L 316 730 L 317 731 L 329 731 L 330 732 L 349 732 L 350 733 L 398 733 L 399 732 L 419 732 L 420 731 L 431 731 L 432 730 L 441 730 L 442 729 L 449 729 L 450 728 L 455 728 L 456 727 L 462 727 L 463 726 L 468 726 L 469 725 L 474 725 L 475 724 L 479 724 L 480 723 L 484 723 L 485 722 L 489 722 L 490 721 L 493 721 L 494 720 L 498 720 L 499 719 L 502 719 L 503 718 L 505 718 L 506 717 L 509 717 L 510 716 L 513 716 L 514 715 L 517 715 L 518 714 L 520 714 L 521 713 L 524 713 L 525 712 L 527 712 L 528 711 L 530 711 L 531 710 L 533 710 L 534 709 L 536 709 L 537 708 L 539 708 L 540 707 L 542 707 L 543 706 L 545 706 L 546 705 L 547 705 L 548 704 L 550 704 L 551 703 L 552 703 L 553 702 L 555 702 L 556 701 L 558 701 L 559 700 L 560 700 L 561 699 L 562 699 L 563 698 L 565 698 L 566 697 L 567 697 L 568 696 L 569 696 L 570 695 L 572 695 L 573 694 L 574 694 L 575 693 L 576 693 L 577 692 L 578 692 L 579 691 L 580 691 L 581 690 L 582 690 L 583 689 L 584 689 L 585 688 L 586 688 L 587 687 L 588 687 L 589 686 L 590 686 L 591 685 L 592 685 L 593 684 L 594 684 L 595 683 L 596 683 L 597 682 L 598 682 L 600 680 L 601 680 L 602 679 L 603 679 L 604 678 L 605 678 L 606 677 L 607 677 L 609 675 L 610 675 L 611 674 L 612 674 L 614 672 L 615 672 L 617 670 L 618 670 L 620 668 L 621 668 L 623 666 L 624 666 L 626 664 L 627 664 L 629 662 L 630 662 L 633 659 L 634 659 L 637 656 L 638 656 L 642 652 L 643 652 L 648 647 L 649 647 L 655 641 L 656 641 L 675 622 L 675 621 L 680 616 L 680 615 L 684 611 L 684 610 L 686 608 L 686 607 L 688 605 L 688 604 L 689 603 L 689 602 L 690 601 L 690 600 L 691 599 L 691 598 L 692 597 L 692 596 L 693 595 L 693 594 L 694 593 L 694 591 L 695 590 L 695 587 L 696 586 L 696 582 L 697 581 L 697 573 L 698 572 L 698 532 L 697 531 L 697 517 L 696 516 L 696 505 L 695 504 L 695 495 L 694 494 L 694 486 L 693 485 L 693 478 L 692 477 L 692 471 L 691 470 L 691 464 L 690 463 L 690 458 L 689 457 L 689 453 L 688 452 L 688 447 L 687 446 L 687 442 L 686 441 L 686 437 L 685 436 L 685 432 L 684 431 L 684 427 L 683 426 L 683 423 L 682 422 L 682 419 L 681 418 L 681 415 L 680 414 L 680 411 L 679 410 L 679 407 L 678 406 L 678 403 L 677 402 L 677 400 L 676 399 L 676 396 L 675 395 L 675 393 L 674 392 L 674 389 L 673 388 L 673 386 L 672 385 L 672 383 L 671 382 L 671 380 L 670 379 L 670 377 L 669 376 L 669 374 L 668 373 L 668 371 L 667 370 L 667 368 L 666 367 L 666 366 L 665 365 L 665 363 L 664 362 L 664 360 L 663 359 L 663 358 L 662 357 L 662 355 L 661 354 L 661 353 L 660 352 L 660 350 L 659 349 L 659 348 L 658 347 L 658 346 L 657 345 L 657 343 L 656 342 L 656 341 L 655 340 L 655 339 L 654 338 L 654 336 L 653 335 L 653 334 L 652 333 L 652 332 L 651 331 L 651 330 L 650 329 L 650 328 L 649 327 L 649 326 L 648 325 L 648 324 L 647 323 L 647 322 L 646 321 L 646 319 L 645 318 L 645 317 L 644 316 L 644 315 L 642 313 L 642 312 L 641 311 L 641 310 L 640 309 L 640 308 L 639 307 L 639 306 L 638 305 L 638 304 L 637 303 L 637 302 L 636 301 L 636 300 L 634 298 L 634 297 L 633 296 L 633 295 L 632 294 L 632 293 L 630 291 L 630 290 L 629 289 L 629 288 L 627 286 L 627 285 L 626 284 L 626 283 L 624 281 L 624 280 L 622 278 L 622 277 L 620 275 L 620 274 L 618 272 L 618 271 L 616 269 L 616 268 L 613 265 L 613 264 L 611 262 L 611 261 L 608 258 L 608 257 L 604 253 L 604 252 L 599 247 L 599 246 L 587 234 L 587 233 L 586 232 L 585 232 L 574 221 L 573 221 L 567 215 L 566 215 L 563 212 L 562 212 L 558 208 L 557 208 L 554 205 L 553 205 L 551 203 L 550 203 L 548 201 L 547 201 L 545 199 L 544 199 L 542 197 L 541 197 L 540 196 L 539 196 L 537 194 L 536 194 L 535 193 L 534 193 L 533 192 L 532 192 L 530 190 L 529 190 L 528 189 L 527 189 L 526 188 L 525 188 L 524 187 L 523 187 L 522 186 L 521 186 L 520 185 L 519 185 L 518 184 L 517 184 L 516 183 L 515 183 L 514 182 L 512 182 L 511 181 L 510 181 L 509 180 L 508 180 L 507 179 L 505 179 L 504 178 L 503 178 L 502 177 L 500 177 L 499 176 L 498 176 L 497 175 L 495 175 L 494 174 L 492 174 L 491 173 L 489 173 L 488 172 L 486 172 L 485 171 L 482 171 L 481 170 L 479 170 L 478 169 L 475 169 L 474 168 L 471 168 L 470 167 L 466 167 L 465 166 L 460 166 L 459 165 L 454 165 L 453 164 L 447 164 L 446 163 L 437 163 L 436 162 L 426 162 L 424 160 L 424 158 L 423 157 L 423 156 L 422 155 L 422 154 L 421 153 L 421 152 L 420 151 L 420 150 L 419 149 L 419 148 L 417 146 L 417 145 L 416 144 L 416 143 L 413 140 L 413 139 L 410 136 L 410 135 L 403 128 L 403 127 L 398 122 L 397 122 L 390 115 L 389 115 L 386 112 L 385 112 L 382 109 L 381 109 L 379 107 L 378 107 L 376 105 L 375 105 L 374 104 L 373 104 L 371 102 L 370 102 L 369 101 L 368 101 L 367 100 L 366 100 L 365 99 L 364 99 L 363 98 L 362 98 L 361 97 L 360 97 L 359 96 L 357 96 L 356 95 L 354 95 L 353 94 Z M 347 106 L 348 105 L 349 105 L 350 106 L 352 106 L 353 107 L 355 107 L 356 108 L 357 108 L 358 109 L 359 109 L 360 110 L 361 110 L 362 111 L 363 111 L 365 113 L 366 113 L 367 114 L 368 114 L 370 116 L 371 116 L 373 118 L 374 118 L 377 121 L 378 121 L 381 124 L 382 124 L 389 131 L 390 131 L 397 138 L 397 139 L 402 144 L 402 145 L 405 148 L 405 149 L 407 151 L 407 152 L 408 153 L 408 154 L 410 156 L 410 157 L 411 158 L 411 159 L 412 160 L 412 161 L 413 162 L 413 164 L 414 165 L 414 166 L 415 167 L 415 168 L 416 169 L 416 170 L 419 173 L 421 173 L 422 174 L 436 174 L 437 175 L 445 175 L 446 176 L 451 176 L 452 177 L 457 177 L 458 178 L 462 178 L 463 179 L 467 179 L 468 180 L 471 180 L 472 181 L 475 181 L 476 182 L 478 182 L 479 183 L 482 183 L 483 184 L 485 184 L 486 185 L 488 185 L 489 186 L 491 186 L 492 187 L 493 187 L 494 188 L 496 188 L 497 189 L 499 189 L 500 190 L 501 190 L 502 191 L 504 191 L 505 192 L 506 192 L 507 193 L 508 193 L 509 194 L 510 194 L 511 195 L 512 195 L 513 196 L 514 196 L 515 197 L 516 197 L 517 198 L 518 198 L 519 199 L 520 199 L 521 200 L 522 200 L 523 201 L 524 201 L 525 202 L 526 202 L 528 204 L 529 204 L 530 205 L 531 205 L 533 207 L 534 207 L 536 209 L 537 209 L 539 211 L 540 211 L 541 212 L 542 212 L 544 214 L 545 214 L 548 217 L 549 217 L 552 220 L 553 220 L 556 223 L 557 223 L 561 227 L 562 227 L 568 233 L 569 233 L 588 252 L 588 253 L 594 259 L 594 260 L 598 264 L 598 265 L 602 269 L 602 270 L 605 273 L 605 274 L 607 276 L 607 277 L 609 279 L 609 280 L 611 282 L 611 283 L 613 285 L 613 286 L 615 288 L 615 289 L 617 291 L 617 292 L 618 293 L 618 294 L 620 296 L 620 297 L 621 298 L 621 299 L 623 301 L 623 302 L 624 303 L 624 304 L 625 305 L 625 306 L 627 308 L 627 309 L 628 310 L 628 311 L 629 312 L 629 313 L 630 314 L 630 315 L 631 316 L 631 317 L 632 318 L 632 319 L 633 320 L 633 321 L 634 322 L 634 323 L 635 324 L 635 325 L 636 326 L 636 327 L 637 328 L 637 329 L 638 330 L 638 331 L 639 332 L 639 333 L 640 334 L 640 335 L 641 336 L 641 337 L 642 338 L 642 340 L 643 341 L 643 342 L 644 343 L 644 344 L 645 345 L 645 346 L 646 347 L 646 349 L 647 350 L 647 351 L 648 352 L 648 354 L 649 355 L 649 356 L 650 357 L 650 359 L 651 360 L 651 361 L 652 362 L 652 363 L 653 364 L 653 366 L 654 367 L 654 369 L 655 370 L 655 372 L 656 373 L 656 375 L 657 376 L 657 377 L 658 378 L 658 380 L 659 381 L 659 383 L 660 384 L 660 386 L 661 387 L 661 389 L 662 390 L 662 393 L 663 394 L 663 396 L 664 397 L 664 400 L 665 401 L 665 403 L 666 404 L 666 406 L 667 407 L 667 410 L 668 411 L 668 414 L 669 415 L 669 418 L 670 419 L 670 422 L 671 423 L 671 426 L 672 427 L 672 431 L 673 432 L 673 436 L 674 437 L 674 440 L 675 441 L 675 445 L 676 446 L 676 451 L 677 452 L 677 456 L 678 457 L 678 462 L 679 463 L 679 469 L 680 470 L 680 476 L 681 477 L 681 484 L 682 485 L 682 493 L 683 494 L 683 503 L 684 504 L 684 515 L 685 516 L 685 532 L 686 533 L 686 574 L 685 575 L 685 581 L 684 582 L 684 586 L 683 587 L 683 589 L 682 590 L 682 591 L 681 592 L 681 593 L 680 594 L 680 595 L 679 596 L 679 597 L 678 598 L 678 599 L 676 601 L 676 602 L 674 604 L 674 605 L 671 608 L 671 609 L 663 617 L 663 618 L 652 629 L 651 629 L 643 637 L 642 637 L 637 642 L 636 642 L 632 646 L 631 646 L 628 649 L 627 649 L 625 651 L 624 651 L 621 654 L 620 654 L 618 656 L 617 656 L 615 658 L 614 658 L 612 660 L 611 660 L 609 662 L 608 662 L 607 663 L 606 663 L 604 665 L 603 665 L 602 666 L 601 666 L 599 668 L 598 668 L 597 669 L 596 669 L 594 671 L 593 671 L 592 672 L 591 672 L 590 673 L 589 673 L 588 674 L 587 674 L 586 675 L 585 675 L 584 676 L 583 676 L 582 677 L 581 677 L 579 679 L 577 679 L 575 681 L 573 681 L 572 682 L 571 682 L 570 683 L 569 683 L 568 684 L 567 684 L 566 685 L 565 685 L 564 686 L 562 686 L 561 687 L 560 687 L 559 688 L 558 688 L 557 689 L 555 689 L 554 690 L 553 690 L 552 691 L 550 691 L 549 692 L 548 692 L 547 693 L 545 693 L 544 694 L 542 694 L 541 695 L 540 695 L 539 696 L 537 696 L 536 697 L 534 697 L 533 698 L 531 698 L 530 699 L 528 699 L 527 700 L 525 700 L 524 701 L 521 701 L 520 702 L 518 702 L 517 703 L 515 703 L 514 704 L 511 704 L 510 705 L 507 705 L 506 706 L 503 706 L 502 707 L 499 707 L 498 708 L 495 708 L 494 709 L 491 709 L 490 710 L 486 710 L 485 711 L 481 711 L 480 712 L 476 712 L 475 713 L 471 713 L 470 714 L 465 714 L 464 715 L 458 715 L 457 716 L 451 716 L 450 717 L 444 717 L 443 718 L 435 718 L 434 719 L 423 719 L 422 720 L 407 720 L 406 721 L 344 721 L 343 720 L 326 720 L 325 719 L 315 719 L 314 718 L 306 718 L 305 717 L 300 717 L 299 716 L 296 716 L 295 715 L 294 715 L 292 713 L 292 710 L 291 709 L 291 686 L 292 685 L 292 678 L 293 677 L 293 671 L 294 670 L 294 667 L 295 666 L 295 662 L 296 661 L 296 659 L 297 658 L 297 655 L 298 654 L 298 652 L 299 651 L 299 648 L 300 647 L 300 645 L 301 644 L 301 642 L 302 641 L 302 640 L 303 639 L 303 637 L 304 636 L 304 635 L 305 634 L 305 632 L 306 631 L 306 630 L 307 629 L 307 628 L 308 627 L 308 625 L 309 624 L 309 623 L 310 622 L 310 621 L 311 620 L 311 619 L 312 618 L 312 617 L 313 616 L 313 615 L 314 614 L 314 613 L 315 612 L 315 611 L 316 610 L 316 609 L 317 608 L 317 607 L 318 606 L 318 605 L 320 603 L 320 602 L 321 601 L 321 600 L 322 599 L 322 598 L 324 596 L 324 595 L 325 594 L 325 593 L 327 591 L 327 590 L 329 588 L 329 587 L 330 586 L 330 585 L 332 583 L 332 582 L 334 580 L 334 579 L 336 577 L 336 576 L 339 573 L 339 572 L 341 570 L 341 569 L 344 566 L 344 565 L 348 561 L 348 560 L 350 558 L 350 557 L 355 552 L 355 551 L 359 547 L 359 546 L 364 541 L 364 540 L 369 535 L 369 534 L 374 529 L 374 528 L 378 524 L 378 523 L 382 519 L 382 518 L 386 514 L 386 513 L 388 511 L 388 510 L 391 507 L 391 506 L 393 504 L 393 503 L 394 502 L 394 501 L 396 499 L 396 498 L 397 497 L 397 496 L 398 495 L 398 494 L 399 493 L 399 492 L 400 491 L 400 490 L 401 489 L 401 488 L 402 487 L 402 486 L 403 485 L 403 484 L 404 483 L 404 481 L 405 480 L 405 478 L 406 477 L 406 475 L 407 474 L 407 471 L 408 470 L 408 467 L 409 466 L 409 460 L 410 459 L 410 439 L 409 438 L 409 432 L 408 431 L 408 428 L 407 427 L 407 426 L 404 423 L 398 423 L 397 424 L 396 424 L 392 428 L 391 428 L 388 431 L 387 431 L 385 433 L 384 433 L 382 435 L 381 435 L 380 436 L 379 436 L 378 437 L 377 437 L 376 438 L 375 438 L 374 439 L 372 439 L 371 440 L 370 440 L 369 441 L 367 441 L 366 442 L 362 442 L 361 443 L 355 443 L 354 444 L 325 444 L 324 445 L 321 445 L 320 446 L 318 446 L 317 447 L 316 447 L 315 448 L 314 448 L 312 450 L 311 450 L 310 451 L 309 451 L 306 454 L 305 454 L 303 456 L 302 456 L 300 458 L 299 458 L 297 460 L 296 460 L 294 462 L 293 462 L 291 464 L 290 464 L 288 466 L 287 466 L 285 468 L 284 468 L 282 470 L 281 470 L 279 472 L 278 472 L 276 474 L 275 474 L 273 476 L 272 476 L 268 480 L 267 480 L 265 482 L 265 483 L 261 487 L 261 488 L 260 489 L 260 490 L 258 492 L 258 494 L 257 495 L 257 496 L 256 497 L 256 498 L 255 499 L 255 501 L 254 502 L 254 504 L 253 505 L 253 507 L 252 508 L 252 510 L 251 511 L 251 513 L 250 514 L 250 515 L 249 516 L 249 518 L 248 519 L 248 520 L 246 522 L 246 523 L 245 524 L 245 525 L 236 534 L 235 534 L 234 535 L 233 535 L 231 537 L 229 537 L 228 538 L 227 538 L 226 539 L 224 539 L 223 540 L 218 540 L 217 541 L 209 541 L 208 540 L 204 540 L 203 539 L 201 539 L 200 538 L 198 538 L 197 537 L 195 537 L 194 536 L 192 536 L 191 535 L 189 535 L 188 534 L 186 534 L 185 533 L 183 533 L 182 532 L 179 532 L 178 531 L 175 531 L 174 530 L 171 530 L 170 529 L 168 529 L 167 528 L 165 528 L 164 527 L 163 527 L 162 526 L 161 526 L 160 525 L 159 525 L 157 523 L 156 523 L 152 519 L 152 518 L 150 516 L 150 515 L 149 514 L 149 513 L 148 512 L 148 510 L 147 509 L 147 506 L 146 505 L 146 502 L 145 501 L 145 496 L 144 495 L 144 489 L 143 488 L 143 481 L 142 480 L 142 471 L 141 470 L 141 456 L 142 455 L 142 452 L 143 451 L 143 449 L 144 448 L 144 447 L 145 446 L 145 445 L 146 444 L 146 443 L 148 441 L 148 440 L 150 438 L 150 437 L 152 435 L 152 434 L 154 432 L 154 431 L 156 429 L 156 428 L 158 426 L 158 425 L 160 423 L 160 422 L 163 419 L 163 418 L 165 416 L 165 415 L 167 413 L 167 412 L 169 410 L 169 409 L 171 407 L 171 406 L 173 404 L 173 403 L 175 401 L 175 400 L 178 397 L 178 396 L 180 394 L 180 393 L 182 391 L 182 390 L 184 388 L 184 387 L 186 385 L 186 384 L 189 381 L 189 380 L 191 378 L 191 377 L 193 375 L 193 374 L 195 372 L 195 371 L 197 369 L 197 368 L 199 366 L 199 365 L 202 362 L 202 361 L 204 359 L 204 358 L 206 356 L 206 355 L 208 353 L 208 352 L 210 350 L 210 349 L 213 346 L 213 345 L 215 343 L 215 342 L 217 340 L 217 339 L 219 337 L 219 336 L 221 334 L 221 333 L 223 331 L 223 330 L 225 328 L 225 327 L 227 325 L 227 324 L 229 322 L 229 321 L 230 320 L 230 319 L 231 318 L 231 317 L 232 316 L 232 315 L 234 313 L 234 312 L 235 311 L 235 310 L 236 309 L 236 307 L 237 306 L 237 305 L 238 304 L 238 302 L 239 301 L 239 298 L 240 297 L 240 294 L 241 293 L 241 290 L 242 289 L 242 286 L 243 285 L 243 281 L 244 280 L 244 277 L 245 276 L 245 274 L 246 273 L 246 271 L 247 270 L 247 269 L 249 267 L 249 266 L 251 264 L 251 263 L 269 245 L 270 245 L 289 226 L 289 225 L 291 223 L 291 222 L 292 221 L 292 219 L 293 218 L 293 209 L 292 208 L 292 206 L 291 205 L 291 203 L 290 202 L 290 201 L 289 200 L 289 198 L 288 197 L 288 195 L 287 194 L 287 192 L 286 191 L 286 189 L 285 188 L 285 186 L 284 185 L 284 182 L 283 181 L 283 178 L 282 177 L 282 173 L 281 172 L 281 167 L 280 166 L 280 157 L 279 156 L 279 150 L 280 149 L 280 146 L 281 145 L 288 145 L 289 146 L 291 146 L 292 147 L 294 147 L 295 148 L 297 148 L 298 149 L 299 149 L 300 150 L 301 150 L 302 151 L 304 151 L 305 152 L 306 152 L 307 153 L 308 153 L 309 154 L 310 154 L 312 156 L 313 156 L 314 157 L 315 157 L 316 158 L 317 158 L 318 159 L 319 159 L 321 161 L 322 161 L 323 162 L 324 162 L 326 164 L 327 164 L 328 165 L 329 165 L 331 167 L 332 167 L 334 169 L 335 169 L 336 170 L 337 170 L 338 171 L 339 171 L 340 172 L 346 172 L 348 170 L 349 170 L 349 169 L 350 168 L 350 167 L 351 166 L 351 158 L 350 157 L 350 152 L 349 151 L 349 146 L 348 145 L 348 138 L 347 137 L 347 127 L 346 126 L 346 108 L 347 107 Z" fill="#000000" fill-rule="evenodd"/>
</svg>
