<svg xmlns="http://www.w3.org/2000/svg" viewBox="269 133 715 953" width="960" height="960" fill="none">

<defs>
  <linearGradient id="gradIridescentLight" x1="0%" y1="0%" x2="100%" y2="100%">
    <stop offset="0%" stop-color="#EEF2F8"></stop>
    <stop offset="38%" stop-color="#E8EDF5"></stop>
    <stop offset="68%" stop-color="#F3DED8"></stop>
    <stop offset="100%" stop-color="#D7C8F4"></stop>
  </linearGradient>
  <linearGradient id="gradIridescentDark" x1="0%" y1="0%" x2="100%" y2="100%">
    <stop offset="0%" stop-color="#F8FBFF"></stop>
    <stop offset="36%" stop-color="#EEF3FB"></stop>
    <stop offset="70%" stop-color="#F7E2DA"></stop>
    <stop offset="100%" stop-color="#E0D3FB"></stop>
  </linearGradient>
  <linearGradient id="gradWordmarkGraphite" x1="0%" y1="0%" x2="100%" y2="0%">
    <stop offset="0%" stop-color="#41454D"></stop>
    <stop offset="100%" stop-color="#363B41"></stop>
  </linearGradient>
  <filter id="softShadow" x="-20%" y="-20%" width="140%" height="140%">
    <feDropShadow dx="0" dy="12" stdDeviation="14" flood-color="#BFC6D6" flood-opacity="0.22"></feDropShadow>
  </filter>
</defs>

<path d="M 606.0 837.5 L 540.0 836.5 L 497.0 831.5 L 490.5 827.0 L 488.5 822.0 L 487.5 798.0 L 497.5 748.0 L 517.5 702.0 L 543.5 663.0 L 591.5 605.0 L 606.5 579.0 L 611.5 561.0 L 609.0 530.5 L 574.0 547.5 L 524.0 550.5 L 478.0 578.5 L 464.5 590.0 L 456.5 613.0 L 443.5 636.0 L 435.0 643.5 L 416.0 650.5 L 395.0 649.5 L 359.0 637.5 L 346.0 630.5 L 336.5 616.0 L 329.5 578.0 L 328.5 555.0 L 334.5 534.0 L 423.5 404.0 L 430.5 388.0 L 436.5 363.0 L 442.5 352.0 L 486.5 308.0 L 475.5 268.0 L 477.5 234.0 L 482.0 230.5 L 493.0 230.5 L 514.0 238.5 L 546.0 256.5 L 542.5 229.0 L 542.5 199.0 L 547.0 192.5 L 565.0 195.5 L 595.0 213.5 L 615.5 233.0 L 630.0 255.5 L 673.0 260.5 L 735.0 281.5 L 781.0 308.5 L 821.5 345.0 L 840.5 369.0 L 860.5 401.0 L 894.5 473.0 L 910.5 529.0 L 921.5 601.0 L 924.5 652.0 L 921.5 693.0 L 907.5 716.0 L 860.0 759.5 L 801.0 794.5 L 746.0 815.5 L 674.0 831.5 L 606.0 837.5 Z" fill="url(#gradIridescentDark)" fill-rule="evenodd"></path>
<path d="M 411.0 1024.5 L 391.5 1024.0 L 391.5 979.0 L 389.5 972.0 L 381.0 964.5 L 367.0 965.5 L 359.5 973.0 L 357.5 983.0 L 358.5 1024.0 L 337.5 1024.0 L 338.0 916.5 L 357.5 917.0 L 357.5 954.0 L 359.0 955.5 L 369.0 947.5 L 376.0 945.5 L 387.0 945.5 L 400.0 950.5 L 406.5 957.0 L 411.5 969.0 L 411.0 1024.5 Z M 444.0 937.5 L 433.0 936.5 L 427.5 929.0 L 427.5 922.0 L 435.0 913.5 L 445.0 913.5 L 451.5 920.0 L 452.5 928.0 L 444.0 937.5 Z M 449.0 1024.5 L 428.5 1024.0 L 430.0 947.5 L 449.5 948.0 L 449.0 1024.5 Z M 513.0 988.5 L 467.0 988.5 L 465.5 987.0 L 465.5 970.0 L 513.0 968.5 L 513.0 988.5 Z M 603.0 1024.5 L 582.5 1024.0 L 582.5 975.0 L 580.5 971.0 L 573.0 964.5 L 562.0 964.5 L 558.0 966.5 L 551.5 975.0 L 550.5 1024.0 L 530.5 1024.0 L 531.0 916.5 L 550.5 917.0 L 551.0 954.5 L 564.0 946.5 L 580.0 945.5 L 589.0 948.5 L 597.5 956.0 L 603.5 972.0 L 603.0 1024.5 Z M 659.0 1026.5 L 646.0 1026.5 L 639.0 1024.5 L 630.0 1019.5 L 620.5 1009.0 L 614.5 989.0 L 617.5 970.0 L 628.0 954.5 L 643.0 946.5 L 659.0 945.5 L 668.0 948.5 L 675.0 954.5 L 676.5 954.0 L 677.0 947.5 L 696.0 947.5 L 696.5 1024.0 L 677.0 1024.5 L 676.0 1016.5 L 669.0 1022.5 L 659.0 1026.5 Z M 660.5 1007.0 L 667.0 1004.5 L 673.5 998.0 L 676.5 989.0 L 676.5 982.0 L 673.5 974.0 L 667.0 967.5 L 661.0 964.5 L 651.0 964.5 L 644.0 967.5 L 637.5 975.0 L 635.5 980.0 L 635.5 991.0 L 639.5 1000.0 L 646.0 1005.5 L 652.0 1007.5 L 660.5 1007.0 Z M 726.0 1026.5 L 717.0 1025.5 L 710.5 1019.0 L 710.5 1008.0 L 718.0 1000.5 L 730.0 1001.5 L 736.5 1011.0 L 736.5 1016.0 L 733.5 1022.0 L 726.0 1026.5 Z M 801.0 1026.5 L 783.0 1025.5 L 777.0 1022.5 L 771.0 1016.5 L 770.0 1024.5 L 750.5 1024.0 L 751.0 916.5 L 770.5 917.0 L 771.0 954.5 L 784.0 946.5 L 800.0 945.5 L 819.0 954.5 L 828.5 968.0 L 831.5 978.0 L 831.5 994.0 L 829.5 1002.0 L 823.5 1013.0 L 817.0 1019.5 L 801.0 1026.5 Z M 796.5 1007.0 L 804.0 1003.5 L 810.5 994.0 L 810.5 978.0 L 802.0 967.5 L 796.0 964.5 L 785.0 964.5 L 773.5 973.0 L 770.5 979.0 L 770.5 992.0 L 773.5 999.0 L 779.0 1004.5 L 786.0 1007.5 L 796.5 1007.0 Z M 891.0 1026.5 L 873.0 1026.5 L 861.0 1022.5 L 848.5 1012.0 L 841.5 997.0 L 840.5 980.0 L 846.5 963.0 L 858.0 951.5 L 870.0 946.5 L 887.0 945.5 L 902.0 950.5 L 912.5 960.0 L 918.5 972.0 L 920.5 983.0 L 919.0 993.5 L 861.5 994.0 L 865.0 1001.5 L 876.0 1008.5 L 889.0 1008.5 L 902.0 1001.5 L 916.5 1011.0 L 907.0 1020.5 L 891.0 1026.5 Z M 899.5 978.0 L 897.5 971.0 L 887.0 963.5 L 875.0 963.5 L 869.0 966.5 L 861.5 977.0 L 862.0 978.5 L 899.5 978.0 Z" fill="#FFFFFF" fill-rule="evenodd"></path>
</svg>